# xmcd
#
# Track frame offsets: 
#        150
#        12505
#        31145
#        47142
#        65795
#        81565
#        101940
#        114492
#        131795
#        145557
#
# Disc length: 2203 seconds
#
# Revision: 0
# Processed by: cddbd v1.4PL0 Copyright (c) Steve Scherf et al.
# Submitted via: ExactAudioCopy v0.90b4
#
DISCID=9108990a
DTITLE=Various Artist - Today's Country Dance Hits Back to Back
DYEAR=1994
DGENRE=Country
TTITLE0=A Good Run of Bad Luck (Black, Nicholas)
TTITLE1=Little Rock (Douglas)
TTITLE2=Walking Away A Winner (Shapiro, DiPiero)
TTITLE3=Don't Take The Girl (Martin, Johnson)
TTITLE4=That Ain't No Way To Go (Dunn, Brooks, Cook)
TTITLE5=How Can I Help You Say Goodbye (Collins, Good)
TTITLE6=Wink (DiPiero, Shapiro)
TTITLE7=Rope The Moon (J. Brown, Denton, A. Brown)
TTITLE8=Thinkin' Problem (Ball, Shamblin, Ziff)
TTITLE9=Whenever You Come Around (Gill, Warner)
EXTD=
EXTT0=
EXTT1=
EXTT2=
EXTT3=
EXTT4=
EXTT5=
EXTT6=
EXTT7=
EXTT8=
EXTT9=
PLAYORDER=
